<svg width="184" height="149" viewBox="0 0 184 149" fill="none" xmlns="http://www.w3.org/2000/svg">
<path d="M176.042 146.484H27.7047C8.38587 146.484 -3.70162 124.488 5.96837 106.887L61.6769 5.38694C62.4827 3.91462 63.9671 3 65.6 3H118.7C122.178 3 124.362 6.97079 122.623 10.1385L74.2733 98.1874C73.3827 99.8159 74.5066 101.868 76.2879 101.868H160.37C162.13 101.868 163.721 102.939 164.463 104.612L180.134 139.725C181.534 142.87 179.35 146.484 176.042 146.484Z" stroke="black" stroke-width="5" stroke-miterlimit="10" stroke-linecap="round" stroke-linejoin="round"/>
<path d="M132.039 23.5456L156.723 85.5168C157.677 87.926 156.002 90.5583 153.521 90.5583H94.8437C92.1717 90.5583 90.5177 87.5245 91.8537 85.0929L125.868 23.1218C127.289 20.5118 130.937 20.7572 132.039 23.5456Z" stroke="black" stroke-width="5" stroke-miterlimit="10" stroke-linecap="round" stroke-linejoin="round"/>
<path d="M85.4703 146.484C68.3782 146.484 63.4372 117.26 72.2589 101.868L83.5618 81.2778" stroke="black" stroke-width="5" stroke-miterlimit="10" stroke-linecap="round" stroke-linejoin="round"/>
<path d="M63.4583 3C48.614 37.1087 53.7035 96.7599 76.712 101.868" stroke="black" stroke-width="5" stroke-miterlimit="10" stroke-linecap="round" stroke-linejoin="round"/>
<path d="M103.453 90.5579L136.153 33.8738" stroke="black" stroke-width="5" stroke-miterlimit="10" stroke-linecap="round" stroke-linejoin="round"/>
<path d="M104.768 90.5579L146.162 58.97" stroke="black" stroke-width="5" stroke-miterlimit="10" stroke-linecap="round" stroke-linejoin="round"/>
</svg>
