<svg width="140" height="135" viewBox="0 0 140 135" fill="none" xmlns="http://www.w3.org/2000/svg">
<path d="M126.853 115.824H27.7892C14.8876 115.824 6.81516 101.134 13.2731 89.3801L50.4769 21.595C51.0151 20.6118 52.0064 20.001 53.0969 20.001H88.5588C90.8813 20.001 92.34 22.6528 91.1787 24.7683L58.8892 83.57C58.2944 84.6575 59.045 86.0281 60.2346 86.0281H116.387C117.563 86.0281 118.625 86.7432 119.121 87.8605L129.586 111.31C130.521 113.41 129.062 115.824 126.853 115.824Z" stroke="black" stroke-width="2.52532" stroke-miterlimit="10" stroke-linecap="round" stroke-linejoin="round"/>
<path d="M97.4668 33.7209L113.951 75.1067C114.589 76.7157 113.47 78.4736 111.813 78.4736H72.6265C70.8421 78.4736 69.7375 76.4475 70.6297 74.8237L93.3457 33.4378C94.2945 31.6948 96.7304 31.8586 97.4668 33.7209Z" stroke="black" stroke-width="2.52532" stroke-miterlimit="10" stroke-linecap="round" stroke-linejoin="round"/>
<path d="M66.3666 115.823C54.952 115.823 51.6522 96.3066 57.5436 86.0271L65.092 72.2764" stroke="black" stroke-width="2.52532" stroke-miterlimit="10" stroke-linecap="round" stroke-linejoin="round"/>
<path d="M51.6662 20C41.7528 42.7787 45.1517 82.6153 60.5175 86.0269" stroke="black" stroke-width="2.52532" stroke-miterlimit="10" stroke-linecap="round" stroke-linejoin="round"/>
<path d="M78.376 78.4736L100.214 40.6182" stroke="black" stroke-width="2.52532" stroke-miterlimit="10" stroke-linecap="round" stroke-linejoin="round"/>
<path d="M79.2543 78.4731L106.899 57.3779" stroke="black" stroke-width="2.52532" stroke-miterlimit="10" stroke-linecap="round" stroke-linejoin="round"/>
</svg>
