<svg width="140" height="135" viewBox="0 0 140 135" fill="none" xmlns="http://www.w3.org/2000/svg">
<path d="M57.0403 130.897H80.9601" stroke="black" stroke-width="2.52532" stroke-miterlimit="10" stroke-linecap="round" stroke-linejoin="round"/>
<path d="M68.9929 130.897V91.3734C68.9929 91.3734 81.6255 65.2575 111.139 59.3877L114.935 100.312C114.949 100.312 85.6617 95.1426 68.9929 130.897Z" stroke="black" stroke-width="2.52532" stroke-miterlimit="10" stroke-linecap="round" stroke-linejoin="round"/>
<path d="M111.777 66.1363C115.416 65.3915 119.311 65.1382 123.418 65.6V107.21C123.418 107.21 91.978 101.087 72.9584 130.882" stroke="black" stroke-width="2.52532" stroke-miterlimit="10" stroke-linecap="round" stroke-linejoin="round"/>
<path d="M123.418 73.6899C126.137 73.8091 128.998 74.2114 132 74.9414L130.527 114.897C130.527 114.897 96.4957 106.242 79.2037 130.897" stroke="black" stroke-width="2.52532" stroke-miterlimit="10" stroke-linecap="round" stroke-linejoin="round"/>
<path d="M68.9932 130.897V91.3734C68.9932 91.3734 56.3606 65.2575 26.8468 59.3877L23.0514 100.312C23.0514 100.312 52.3386 95.1426 68.9932 130.897Z" stroke="black" stroke-width="2.52532" stroke-miterlimit="10" stroke-linecap="round" stroke-linejoin="round"/>
<path d="M26.2237 66.1363C22.584 65.3915 18.6894 65.1382 14.5824 65.6V107.21C14.5824 107.21 46.0223 101.087 65.042 130.882" stroke="black" stroke-width="2.52532" stroke-miterlimit="10" stroke-linecap="round" stroke-linejoin="round"/>
<path d="M14.5822 73.6899C11.8631 73.8091 9.00236 74.2114 6 74.9414L7.47286 114.897C7.47286 114.897 41.5044 106.242 58.7963 130.897" stroke="black" stroke-width="2.52532" stroke-miterlimit="10" stroke-linecap="round" stroke-linejoin="round"/>
<path d="M68.7808 70.7886C68.7808 70.7886 77.8303 46.1627 108.505 43.0938" stroke="black" stroke-width="2.52532" stroke-miterlimit="10" stroke-linecap="round" stroke-linejoin="round"/>
<path d="M45.7246 46.3268L63.9654 5.1792H75.5925L55.1991 53.4927" stroke="black" stroke-width="2.52532" stroke-miterlimit="10" stroke-linecap="round" stroke-linejoin="round"/>
<path d="M93.7059 46.1475L75.4794 5H63.8381L83.7783 52.2109" stroke="black" stroke-width="2.52532" stroke-miterlimit="10" stroke-linecap="round" stroke-linejoin="round"/>
<path d="M55.1992 53.4927C55.1992 53.4927 67.8885 31.5188 91.525 41.4108" stroke="black" stroke-width="2.52532" stroke-miterlimit="10" stroke-linecap="round" stroke-linejoin="round"/>
<path d="M45.6825 46.1621C45.6825 46.1621 60.4252 20.6428 87.8997 32.1138" stroke="black" stroke-width="2.52532" stroke-miterlimit="10" stroke-linecap="round" stroke-linejoin="round"/>
<path d="M68.7806 70.7886C68.7806 70.7886 59.731 46.1627 29.0559 43.0938" stroke="black" stroke-width="2.52532" stroke-miterlimit="10" stroke-linecap="round" stroke-linejoin="round"/>
</svg>
