<svg width="140" height="135" viewBox="0 0 140 135" fill="none" xmlns="http://www.w3.org/2000/svg">
<path d="M69.86 132.148C104.024 132.148 131.72 103.013 131.72 67.074C131.72 31.1346 104.024 2 69.86 2C35.6957 2 8 31.1346 8 67.074C8 103.013 35.6957 132.148 69.86 132.148Z" stroke="black" stroke-width="2.52532" stroke-miterlimit="10"/>
<path d="M35.248 88.1245H63.2323" stroke="black" stroke-width="2.52532" stroke-miterlimit="10" stroke-linecap="round"/>
<path d="M77.6918 88.1245H105.676" stroke="black" stroke-width="2.52532" stroke-miterlimit="10" stroke-linecap="round"/>
<path d="M52.6392 64.1689H89.6589" stroke="black" stroke-width="2.52532" stroke-miterlimit="10"/>
<path d="M71.8003 22.1865L41.7059 88.1245" stroke="black" stroke-width="2.52532" stroke-miterlimit="10"/>
<path d="M73.1033 132.029H67.3677C67.0278 132.029 66.7587 131.746 66.7587 131.388V123.298C66.7587 122.941 67.0278 122.658 67.3677 122.658H73.1033C73.4432 122.658 73.7123 122.941 73.7123 123.298V131.388C73.7123 131.746 73.4432 132.029 73.1033 132.029Z" fill="white" stroke="black" stroke-width="2.52532" stroke-miterlimit="10"/>
<path d="M73.1457 122.315C73.1457 122.315 84.7728 109.965 96.2866 107.253C107.8 104.542 119.555 105.853 119.555 105.853" stroke="black" stroke-width="2.52532" stroke-miterlimit="10" stroke-linecap="round" stroke-linejoin="round"/>
<path d="M73.712 126.561C73.712 126.561 80.0142 119.499 88.9079 117.383C96.343 115.625 109.018 117.473 109.018 117.473" stroke="black" stroke-width="2.52532" stroke-miterlimit="10" stroke-linecap="round" stroke-linejoin="round"/>
<path d="M69.0673 121.973C69.0673 121.973 66.1641 107.507 48.773 100.326C31.467 93.1895 24.0743 96.6756 24.0743 96.6756C24.0743 96.6756 26.0854 100.206 26.0854 104.557" stroke="black" stroke-width="2.52532" stroke-miterlimit="10" stroke-linecap="round" stroke-linejoin="round"/>
<path d="M67.297 121.972C67.297 121.972 55.6699 109.622 44.1562 106.911C32.6424 104.199 20.8878 105.51 20.8878 105.51" stroke="black" stroke-width="2.52532" stroke-miterlimit="10" stroke-linecap="round" stroke-linejoin="round"/>
<path d="M66.7304 126.203C66.7304 126.203 60.4283 119.142 51.5345 117.026C44.0994 115.269 31.4243 117.116 31.4243 117.116" stroke="black" stroke-width="2.52532" stroke-miterlimit="10" stroke-linecap="round" stroke-linejoin="round"/>
<path d="M72.2538 121.809C72.2538 121.809 75.157 107.343 92.5481 100.162C109.854 93.0259 117.247 96.512 117.247 96.512C117.247 96.512 115.236 100.043 115.236 104.393" stroke="black" stroke-width="2.52532" stroke-miterlimit="10" stroke-linecap="round" stroke-linejoin="round"/>
<path d="M86.0191 88.1245L65.045 36.9951" stroke="black" stroke-width="2.52532" stroke-miterlimit="10" stroke-linecap="round" stroke-linejoin="round"/>
<path d="M71.8005 22.1865L98.6376 87.603" stroke="black" stroke-width="2.52532" stroke-miterlimit="10" stroke-linecap="round" stroke-linejoin="round"/>
</svg>
