<svg width="140" height="135" viewBox="0 0 140 135" fill="none" xmlns="http://www.w3.org/2000/svg">
<path d="M56.2353 86.6584L67.9756 66.7401C70.0291 63.2689 74.8301 63.2689 76.8836 66.7401L84.9135 80.3567L112.629 79.9097L86.3863 35.4993L86.4147 35.4546L78.8946 22.7766C75.9064 17.7411 68.9387 17.7411 65.9646 22.7766L58.4446 35.4546L58.4729 35.5142L22.7703 95.9845C22.7278 96.0441 22.7136 96.1037 22.6711 96.1632C22.5295 96.4165 22.3879 96.6847 22.2604 96.9528C22.2038 97.072 22.1613 97.1763 22.1046 97.2955C21.9913 97.5487 21.8922 97.802 21.7931 98.0553C21.7364 98.1894 21.6939 98.3383 21.6515 98.4724C21.5806 98.7108 21.5098 98.9491 21.439 99.1875C21.3965 99.3663 21.3541 99.5301 21.3116 99.7089C21.2691 99.9175 21.2266 100.141 21.1841 100.35C21.1558 100.558 21.1275 100.752 21.0991 100.96C21.0708 101.154 21.0566 101.348 21.0425 101.556C21.0283 101.78 21.0142 102.003 21.0142 102.227C21.0142 102.346 21 102.45 21 102.569C21 102.644 21.0142 102.718 21.0142 102.808C21.0142 103.016 21.0283 103.24 21.0425 103.448C21.0566 103.657 21.0708 103.865 21.0991 104.074C21.1133 104.253 21.1416 104.432 21.1699 104.595C21.2124 104.834 21.2408 105.072 21.2974 105.296C21.3257 105.445 21.3682 105.579 21.3965 105.713C21.4532 105.966 21.524 106.219 21.5948 106.473C21.6373 106.607 21.6798 106.741 21.7364 106.86C21.8214 107.098 21.9064 107.352 22.0055 107.59C22.0622 107.739 22.133 107.888 22.2038 108.022C22.3029 108.23 22.402 108.439 22.5012 108.648C22.6003 108.826 22.6995 108.99 22.7986 109.169C22.8977 109.333 22.9969 109.497 23.096 109.661C23.2234 109.854 23.3509 110.033 23.4925 110.212C23.5917 110.346 23.6908 110.48 23.7899 110.614C23.9316 110.793 24.0873 110.957 24.229 111.136C24.3423 111.27 24.4555 111.389 24.583 111.523C24.7246 111.672 24.8804 111.806 25.022 111.955C25.1778 112.089 25.3194 112.238 25.4752 112.357C25.6027 112.461 25.7443 112.566 25.8859 112.685C26.07 112.834 26.2683 112.968 26.4666 113.117C26.5232 113.147 26.5657 113.191 26.6223 113.221C26.6932 113.266 26.7781 113.311 26.8489 113.355C27.0614 113.489 27.288 113.623 27.5004 113.743C27.642 113.817 27.7695 113.877 27.9111 113.951C28.1235 114.056 28.336 114.16 28.5626 114.249C28.7183 114.309 28.8741 114.368 29.0299 114.428C29.2282 114.502 29.4406 114.562 29.6389 114.637C29.823 114.696 29.9929 114.741 30.177 114.786C30.3611 114.83 30.5594 114.875 30.7577 114.905C30.9559 114.949 31.1684 114.979 31.3666 115.009C31.5508 115.039 31.7207 115.054 31.9048 115.069C32.1172 115.083 32.3438 115.098 32.5563 115.098C32.6696 115.098 32.7687 115.113 32.882 115.113H98.1975C98.1975 115.113 115.674 101.184 118.548 92.7963C119.058 91.2916 118.294 90.0998 116.778 90.0998H69.9017" stroke="black" stroke-width="2.52532" stroke-miterlimit="10" stroke-linecap="round" stroke-linejoin="round"/>
<path d="M55.9802 39.7305C51.0659 48.0582 33.6183 90.0547 69.8873 90.0547" stroke="black" stroke-width="2.52532" stroke-miterlimit="10" stroke-linecap="round" stroke-linejoin="round"/>
</svg>
