<svg width="181" height="147" viewBox="0 0 181 147" fill="none" xmlns="http://www.w3.org/2000/svg">
<path d="M173.134 143.538H27.8428C8.92066 143.538 -2.91868 121.994 6.55279 104.755L61.1176 5.33793C61.9069 3.89584 63.3609 3 64.9602 3H116.97C120.377 3 122.516 6.88927 120.813 9.99194L73.4555 96.2332C72.5831 97.8282 73.684 99.8384 75.4287 99.8384H157.785C159.509 99.8384 161.067 100.887 161.794 102.526L177.143 136.918C178.514 139.998 176.375 143.538 173.134 143.538Z" stroke="black" stroke-width="5" stroke-miterlimit="10" stroke-linecap="round" stroke-linejoin="round"/>
<path d="M84.4225 143.538C67.6812 143.538 62.8416 114.915 71.4823 99.8383L82.5531 79.6709" stroke="black" stroke-width="5" stroke-miterlimit="10" stroke-linecap="round" stroke-linejoin="round"/>
<path d="M62.8623 3C48.3227 36.4085 53.3077 94.835 75.8441 99.8386" stroke="black" stroke-width="5" stroke-miterlimit="10" stroke-linecap="round" stroke-linejoin="round"/>
</svg>
