<svg width="140" height="135" viewBox="0 0 140 135" fill="none" xmlns="http://www.w3.org/2000/svg">
<path d="M58.0403 130.058H81.9601" stroke="black" stroke-width="2.52532" stroke-miterlimit="10" stroke-linecap="round" stroke-linejoin="round"/>
<path d="M70.0071 130.057V90.5334C70.0071 90.5334 82.6397 64.4176 112.153 58.5479L115.949 99.472C115.949 99.4869 86.6617 94.3025 70.0071 130.057Z" stroke="black" stroke-width="2.52532" stroke-miterlimit="10" stroke-linecap="round" stroke-linejoin="round"/>
<path d="M112.777 65.3102C116.416 64.5653 120.311 64.312 124.418 64.7739V106.383C124.418 106.383 92.978 100.26 73.9583 130.056" stroke="black" stroke-width="2.52532" stroke-miterlimit="10" stroke-linecap="round" stroke-linejoin="round"/>
<path d="M124.418 72.8647C127.137 72.9839 129.998 73.3862 133 74.1162L131.527 114.072C131.527 114.072 97.4958 105.416 80.2039 130.072" stroke="black" stroke-width="2.52532" stroke-miterlimit="10" stroke-linecap="round" stroke-linejoin="round"/>
<path d="M70.0073 130.057V90.5334C70.0073 90.5334 57.3747 64.4176 27.8609 58.5479L24.0654 99.472C24.0513 99.4869 53.3385 94.3025 70.0073 130.057Z" stroke="black" stroke-width="2.52532" stroke-miterlimit="10" stroke-linecap="round" stroke-linejoin="round"/>
<path d="M27.2238 65.3102C23.5841 64.5653 19.6895 64.312 15.5825 64.7739V106.383C15.5825 106.383 47.0224 100.26 66.0421 130.056" stroke="black" stroke-width="2.52532" stroke-miterlimit="10" stroke-linecap="round" stroke-linejoin="round"/>
<path d="M15.5822 72.8647C12.8631 72.9839 10.0024 73.3862 7 74.1162L8.47286 114.072C8.47286 114.072 42.5044 105.416 59.7963 130.072" stroke="black" stroke-width="2.52532" stroke-miterlimit="10" stroke-linecap="round" stroke-linejoin="round"/>
<path d="M70.3896 70.7886C70.3896 70.7886 79.4392 46.1622 110.114 43.0933" stroke="black" stroke-width="2.52532" stroke-miterlimit="10" stroke-linecap="round" stroke-linejoin="round"/>
<path d="M71.5366 18.6167L66.4666 30.6245" stroke="black" stroke-width="2.52532" stroke-miterlimit="10" stroke-linecap="round" stroke-linejoin="round"/>
<path d="M47.3337 46.3267L65.5745 5.17871H77.2016" stroke="black" stroke-width="2.52532" stroke-miterlimit="10" stroke-linecap="round" stroke-linejoin="round"/>
<path d="M80.0767 38.8774L85.515 51.7344" stroke="black" stroke-width="2.52532" stroke-miterlimit="10" stroke-linecap="round" stroke-linejoin="round"/>
<path d="M71.5369 18.6167L75.8846 28.9414" stroke="black" stroke-width="2.52532" stroke-miterlimit="10" stroke-linecap="round" stroke-linejoin="round"/>
<path d="M95.6406 46.1475L77.4139 5H65.7869" stroke="black" stroke-width="2.52532" stroke-miterlimit="10" stroke-linecap="round" stroke-linejoin="round"/>
<path d="M56.8079 53.4922C56.8079 53.4922 69.4971 31.5176 93.1337 41.4099" stroke="black" stroke-width="2.52532" stroke-miterlimit="10" stroke-linecap="round" stroke-linejoin="round"/>
<path d="M47.2913 46.1768C47.2913 46.1768 62.034 20.6567 89.5085 32.1281" stroke="black" stroke-width="2.52532" stroke-miterlimit="10" stroke-linecap="round" stroke-linejoin="round"/>
<path d="M70.3895 70.7886C70.3895 70.7886 61.3399 46.1622 30.6648 43.0933" stroke="black" stroke-width="2.52532" stroke-miterlimit="10" stroke-linecap="round" stroke-linejoin="round"/>
</svg>
