<svg width="117" height="126" viewBox="0 0 117 126" fill="none" xmlns="http://www.w3.org/2000/svg">
<circle cx="77.5" cy="39.5" r="39.5" fill="#C9CFE4"/>
<path d="M46.775 107.062C46.4804 107.062 46.1836 106.961 45.9414 106.755L37.6085 99.6592C37.321 99.4141 37.1558 99.0563 37.1558 98.6783C37.1558 98.301 37.3218 97.9432 37.6085 97.6981L45.9414 90.6026C46.4825 90.1413 47.2953 90.2067 47.7566 90.7478C48.2172 91.2896 48.1525 92.1024 47.6107 92.563L40.4297 98.6783L47.6107 104.794C48.1525 105.255 48.2172 106.068 47.7566 106.609C47.5015 106.908 47.1393 107.062 46.775 107.062Z" fill="black"/>
<path d="M63.2251 107.062C62.8608 107.062 62.4986 106.908 62.2442 106.609C61.7829 106.068 61.8483 105.255 62.3894 104.794L69.5704 98.6783L62.3894 92.563C61.8483 92.1024 61.7829 91.2896 62.2442 90.7478C62.7049 90.2067 63.5183 90.1413 64.0587 90.6026L72.3916 97.6981C72.6791 97.9432 72.8444 98.301 72.8444 98.6783C72.8444 99.0563 72.6791 99.4141 72.3916 99.6592L64.0587 106.755C63.8165 106.961 63.5198 107.062 63.2251 107.062Z" fill="black"/>
<path d="M52.0503 112.384C51.9619 112.384 51.8728 112.375 51.7829 112.356C51.0873 112.209 50.6418 111.526 50.7884 110.83L55.9817 86.1731C56.1283 85.4775 56.811 85.0319 57.5073 85.1785C58.2029 85.3251 58.6485 86.0078 58.5019 86.7041L53.3085 111.362C53.1806 111.968 52.646 112.384 52.0503 112.384Z" fill="black"/>
<path d="M85.3538 125.818H24.6462C19.879 125.818 16 121.939 16 117.171V65.6462C16 60.879 19.879 57 24.6462 57H85.3538C90.121 57 94 60.879 94 65.6462V117.171C94 121.939 90.121 125.818 85.3538 125.818ZM24.6462 59.5755C21.299 59.5755 18.5755 62.299 18.5755 65.6462V117.171C18.5755 120.519 21.299 123.242 24.6462 123.242H85.3538C88.701 123.242 91.4245 120.519 91.4245 117.171V65.6462C91.4245 62.299 88.701 59.5755 85.3538 59.5755H24.6462Z" fill="black"/>
<path d="M92.7123 77.6203H17.2877C16.5763 77.6203 16 77.044 16 76.3325C16 75.6218 16.5763 75.0448 17.2877 75.0448H92.7123C93.4237 75.0448 94 75.6218 94 76.3325C94 77.044 93.4237 77.6203 92.7123 77.6203Z" fill="black"/>
<path d="M38.0022 71.4583C35.7558 71.4583 33.927 69.6294 33.927 67.3831C33.927 65.136 35.7558 63.3079 38.0022 63.3079C40.2493 63.3079 42.0774 65.136 42.0774 67.3831C42.0774 69.6294 40.2493 71.4583 38.0022 71.4583ZM38.0022 65.8833C37.1758 65.8833 36.5025 66.5559 36.5025 67.3831C36.5025 68.2102 37.1758 68.8828 38.0022 68.8828C38.8293 68.8828 39.5019 68.2102 39.5019 67.3831C39.5019 66.5559 38.8293 65.8833 38.0022 65.8833Z" fill="black"/>
<path d="M25.4812 71.4187C23.2341 71.4187 21.406 69.5906 21.406 67.3435C21.406 65.0964 23.2341 63.2683 25.4812 63.2683C27.7283 63.2683 29.5564 65.0964 29.5564 67.3435C29.5564 69.5906 27.7283 71.4187 25.4812 71.4187ZM25.4812 65.8438C24.6548 65.8438 23.9815 66.5171 23.9815 67.3435C23.9815 68.1706 24.6548 68.8432 25.4812 68.8432C26.3083 68.8432 26.9809 68.1706 26.9809 67.3435C26.9809 66.5171 26.3083 65.8438 25.4812 65.8438Z" fill="black"/>
<path d="M50.5232 71.4971C48.2769 71.4971 46.4487 69.669 46.4487 67.4219C46.4487 65.1755 48.2769 63.3474 50.5232 63.3474C52.7703 63.3474 54.5984 65.1755 54.5984 67.4219C54.5984 69.669 52.7703 71.4971 50.5232 71.4971ZM50.5232 65.9222C49.6968 65.9222 49.0242 66.5948 49.0242 67.4219C49.0242 68.249 49.6968 68.9216 50.5232 68.9216C51.3503 68.9216 52.0229 68.249 52.0229 67.4219C52.0229 66.5948 51.3503 65.9222 50.5232 65.9222Z" fill="black"/>
<path d="M22.0022 54.4583C19.7558 54.4583 17.927 52.6294 17.927 50.3831C17.927 48.136 19.7558 46.3079 22.0022 46.3079C24.2493 46.3079 26.0774 48.136 26.0774 50.3831C26.0774 52.6294 24.2493 54.4583 22.0022 54.4583ZM22.0022 48.8833C21.1758 48.8833 20.5025 49.5559 20.5025 50.3831C20.5025 51.2102 21.1758 51.8828 22.0022 51.8828C22.8293 51.8828 23.5019 51.2102 23.5019 50.3831C23.5019 49.5559 22.8293 48.8833 22.0022 48.8833Z" fill="black"/>
<path d="M9.4812 54.4187C7.23413 54.4187 5.40601 52.5906 5.40601 50.3435C5.40601 48.0964 7.23413 46.2683 9.4812 46.2683C11.7283 46.2683 13.5564 48.0964 13.5564 50.3435C13.5564 52.5906 11.7283 54.4187 9.4812 54.4187ZM9.4812 48.8438C8.65481 48.8438 7.98148 49.5171 7.98148 50.3435C7.98148 51.1706 8.65481 51.8432 9.4812 51.8432C10.3083 51.8432 10.9809 51.1706 10.9809 50.3435C10.9809 49.5171 10.3083 48.8438 9.4812 48.8438Z" fill="black"/>
<path d="M34.5232 54.4971C32.2769 54.4971 30.4487 52.669 30.4487 50.4219C30.4487 48.1755 32.2769 46.3474 34.5232 46.3474C36.7703 46.3474 38.5984 48.1755 38.5984 50.4219C38.5984 52.669 36.7703 54.4971 34.5232 54.4971ZM34.5232 48.9222C33.6968 48.9222 33.0242 49.5948 33.0242 50.4219C33.0242 51.249 33.6968 51.9216 34.5232 51.9216C35.3503 51.9216 36.0229 51.249 36.0229 50.4219C36.0229 49.5948 35.3503 48.9222 34.5232 48.9222Z" fill="black"/>
<path fill-rule="evenodd" clip-rule="evenodd" d="M14 58.0448H1.28784C0.576416 58.0448 0 58.6218 0 59.3326C0 60.0439 0.576416 60.6203 1.28784 60.6203H14V58.0448Z" fill="black"/>
<path fill-rule="evenodd" clip-rule="evenodd" d="M78 55V48.6462C78 43.879 74.1211 40 69.3538 40H8.64624C3.87891 40 0 43.879 0 48.6462V100.171C0 104.939 3.87891 108.818 8.64624 108.818H14V106.242H8.64624C5.29907 106.242 2.57544 103.519 2.57544 100.171V48.6462C2.57544 45.299 5.29907 42.5755 8.64624 42.5755H69.3538C72.7009 42.5755 75.4246 45.299 75.4246 48.6462V55H78Z" fill="black"/>
</svg>
