<svg width="97" height="128" viewBox="0 0 97 128" fill="none" xmlns="http://www.w3.org/2000/svg">
<circle cx="57.5" cy="39.5" r="39.5" fill="#C9CFE4"/>
<path d="M41.9201 21.8286H36.8593C36.1606 21.8286 35.5941 22.3951 35.5941 23.0938V24.359H25.1706C24.6483 22.8865 23.242 21.8286 21.5926 21.8286C19.9433 21.8286 18.5369 22.8865 18.0147 24.359H7.59116V23.0938C7.59116 22.3951 7.02469 21.8286 6.32597 21.8286H1.26519C0.566469 21.8286 0 22.3951 0 23.0938V28.1546C0 28.8533 0.566469 29.4198 1.26519 29.4198H6.32597C7.02469 29.4198 7.59116 28.8533 7.59116 28.1546V26.8725H12.8524C8.28795 29.7634 5.51329 34.6471 5.17954 39.8316C3.68914 40.3441 2.61473 41.7591 2.61473 43.4213C2.61473 45.5141 4.31743 47.2168 6.41032 47.2168C8.5032 47.2168 10.2059 45.5141 10.2059 43.4213C10.2059 41.7866 9.16717 40.39 7.71515 39.8568C8.16438 33.898 12.4552 28.7658 18.1932 27.3096C18.8151 28.5589 20.1049 29.4198 21.5926 29.4198C23.0804 29.4198 24.3702 28.5589 24.9921 27.3097C30.7301 28.7658 35.0209 33.8981 35.4701 39.8569C34.0181 40.39 32.9794 41.7866 32.9794 43.4213C32.9794 45.5141 34.6821 47.2168 36.775 47.2168C38.8679 47.2168 40.5706 45.5141 40.5706 43.4213C40.5706 41.7591 39.4962 40.3441 38.0058 39.8316C37.6713 34.6368 34.8884 29.7746 30.3329 26.8894H35.5941V28.1546C35.5941 28.8533 36.1606 29.4198 36.8593 29.4198H41.9201C42.6188 29.4198 43.1853 28.8533 43.1853 28.1546V23.0938C43.1853 22.3951 42.6188 21.8286 41.9201 21.8286ZM5.06078 26.8894H2.53039V24.359H5.06078V26.8894ZM6.41032 44.6865C5.71269 44.6865 5.14512 44.1189 5.14512 43.4213C5.14512 42.7236 5.71269 42.1561 6.41032 42.1561C7.10794 42.1561 7.67551 42.7236 7.67551 43.4213C7.67551 44.1189 7.10794 44.6865 6.41032 44.6865ZM21.5926 26.8894C20.895 26.8894 20.3274 26.3218 20.3274 25.6242C20.3274 24.9266 20.895 24.359 21.5926 24.359C22.2903 24.359 22.8578 24.9266 22.8578 25.6242C22.8578 26.3218 22.2903 26.8894 21.5926 26.8894ZM36.775 42.1561C37.4726 42.1561 38.0402 42.7236 38.0402 43.4213C38.0402 44.1189 37.4726 44.6865 36.775 44.6865C36.0773 44.6865 35.5098 44.1189 35.5098 43.4213C35.5098 42.7236 36.0773 42.1561 36.775 42.1561ZM40.6549 26.8894H38.1245V24.359H40.6549V26.8894Z" fill="black"/>
<path d="M32.7667 52.5785L22.6452 37.3963C22.6449 37.3958 22.6444 37.3953 22.6441 37.3947C22.6405 37.3893 22.6365 37.3842 22.6328 37.3788C22.6154 37.3536 22.5971 37.3293 22.578 37.3056C22.0449 36.6432 21.0297 36.6879 20.5523 37.3788C20.5486 37.3842 20.5446 37.3893 20.541 37.3947C20.5407 37.3953 20.5402 37.3957 20.5399 37.3963L10.4184 52.5786C10.0838 53.0804 10.15 53.7486 10.5764 54.175C13.1006 56.6993 14.7073 59.9989 15.1449 63.5291C14.9485 63.688 14.7588 63.858 14.579 64.042C13.3906 65.2576 12.7362 66.8576 12.7362 68.5471C12.7362 69.2458 13.3027 69.8123 14.0014 69.8123H29.1837C29.8824 69.8123 30.4489 69.2458 30.4489 68.5471C30.4489 66.8576 29.7945 65.2576 28.6062 64.042C28.4263 63.8579 28.2367 63.6879 28.0401 63.529C28.4777 59.9987 30.0844 56.699 32.6086 54.175C33.0351 53.7486 33.1013 53.0803 32.7667 52.5785ZM21.5925 52.0152C22.2902 52.0152 22.8577 52.5828 22.8577 53.2804C22.8577 53.978 22.2902 54.5456 21.5925 54.5456C20.8949 54.5456 20.3274 53.978 20.3274 53.2804C20.3274 52.5828 20.8949 52.0152 21.5925 52.0152ZM15.4823 67.2819C16.0087 65.7777 17.4357 64.6671 19.0622 64.6671H24.1229C25.7494 64.6671 27.1764 65.7777 27.7028 67.2819H15.4823ZM25.6618 62.3293C25.1642 62.2023 24.6483 62.1367 24.1229 62.1367H19.0622C18.5368 62.1367 18.0209 62.2023 17.5233 62.3294C16.9312 58.9194 15.3934 55.7317 13.0824 53.1442L20.3274 42.2767V49.7025C18.8548 50.2248 17.797 51.6311 17.797 53.2805C17.797 55.3734 19.4997 57.0761 21.5925 57.0761C23.6854 57.0761 25.3881 55.3734 25.3881 53.2805C25.3881 51.6311 24.3303 50.2248 22.8577 49.7025V42.2767L30.1027 53.1442C27.7917 55.7315 26.2539 58.9192 25.6618 62.3293Z" fill="black"/>
<path d="M17.994 73.711L15.2949 68.9126H27.2908L24.5918 73.711H17.994Z" stroke="black" stroke-width="2"/>
<path fill-rule="evenodd" clip-rule="evenodd" d="M65.2037 80.6086C58.7846 81.1442 53.7253 86.5853 53.7253 93.1521V111.528C53.7253 120.273 60.8314 127.393 69.5763 127.393C78.3211 127.393 85.4272 120.273 85.4272 111.528V93.1521C85.4272 86.5853 80.3679 81.1442 73.9488 80.6086H65.2037ZM66.2449 83.252C60.818 83.252 56.4119 87.7117 56.4119 93.1521V97.8939H68.233V83.252H66.2449ZM69.5763 124.693C76.8435 124.693 82.7406 118.796 82.7406 111.528V100.581H56.4119V111.528C56.4119 118.796 62.309 124.693 69.5763 124.693ZM70.9196 97.8939H82.7406V93.1521C82.7406 87.7117 78.3346 83.252 72.9076 83.252H70.9196V97.8939Z" fill="black"/>
<path d="M21.592 73.1111C21.592 91.4049 17.3937 109.699 33.8884 109.699C58.7801 109.699 30.2895 49.7191 56.9804 49.7191C71.3759 49.7191 69.2762 69.8123 69.2762 82.408" stroke="black" stroke-width="3"/>
</svg>
