<svg width="302" height="302" viewBox="0 0 302 302" fill="none" xmlns="http://www.w3.org/2000/svg">
<path d="M277.736 169.243C275.027 168.566 272.317 169.243 269.947 170.936C261.142 178.384 250.982 184.478 239.806 188.541C229.308 192.604 217.793 194.635 205.601 194.635C178.17 194.635 153.109 183.463 135.16 165.519C117.211 147.575 106.036 122.521 106.036 95.0976C106.036 83.5864 108.067 72.4139 111.454 62.257C115.179 51.423 120.598 41.6046 127.71 33.1406C130.758 29.4164 130.08 23.9994 126.355 20.9523C123.985 19.2595 121.275 18.5824 118.566 19.2595C89.7799 27.0464 64.7191 44.3131 46.7701 67.3354C29.4985 90.0191 19 118.12 19 148.929C19 185.832 33.901 219.35 58.2845 243.727C82.668 268.103 116.195 283 153.109 283C184.266 283 213.052 272.166 236.081 254.222C259.448 235.94 276.381 209.87 283.493 180.077C285.187 174.998 282.477 170.259 277.736 169.243ZM225.921 240.003C206.279 255.576 181.218 265.056 153.787 265.056C121.614 265.056 92.4892 251.852 71.4923 230.861C50.4954 209.87 37.2876 180.754 37.2876 148.591C37.2876 121.844 46.0928 97.4675 61.3325 77.8309C71.8309 64.2883 85.0386 53.1158 100.278 45.3288C98.585 49.053 96.8917 52.7772 95.5371 56.84C91.1345 69.0282 89.1026 81.8936 89.1026 95.4361C89.1026 127.6 102.31 157.055 123.307 178.046C144.304 199.036 173.767 212.24 205.94 212.24C220.164 212.24 233.71 209.87 246.241 205.131C250.643 203.438 255.046 201.745 259.11 199.714C250.982 215.287 239.806 229.169 225.921 240.003Z" fill="black"/>
</svg>
