<svg width="302" height="302" viewBox="0 0 302 302" fill="none" xmlns="http://www.w3.org/2000/svg">
<path d="M79.8159 62.0232L62.0231 44.2304C57.1156 39.3166 49.1378 39.3166 44.2303 44.2304C39.3165 49.1442 39.3165 57.1094 44.2303 62.0232L62.0231 79.8161C64.4768 82.2761 67.6982 83.503 70.9195 83.503C74.1409 83.503 77.3622 82.2761 79.8159 79.8161C84.7297 74.9023 84.7297 66.937 79.8159 62.0232Z" fill="var(--color)"/>
<path d="M37.75 138.417H12.5833C5.63733 138.417 0 144.054 0 151C0 157.946 5.63733 163.583 12.5833 163.583H37.75C44.696 163.583 50.3333 157.946 50.3333 151C50.3333 144.054 44.696 138.417 37.75 138.417Z" fill="var(--color)"/>
<path d="M79.8159 222.184C74.9084 217.27 66.9306 217.27 62.0231 222.184L44.2303 239.977C39.3165 244.891 39.3165 252.856 44.2303 257.77C46.684 260.23 49.9054 261.457 53.1267 261.457C56.348 261.457 59.5693 260.23 62.0231 257.77L79.8159 239.977C84.7297 235.063 84.7297 227.098 79.8159 222.184Z" fill="var(--color)"/>
<path d="M151 251.667C144.054 251.667 138.417 257.304 138.417 264.25V289.417C138.417 296.363 144.054 302 151 302C157.946 302 163.583 296.363 163.583 289.417V264.25C163.583 257.304 157.946 251.667 151 251.667Z" fill="var(--color)"/>
<path d="M257.77 239.977L239.977 222.184C235.069 217.27 227.091 217.27 222.184 222.184C217.27 227.098 217.27 235.063 222.184 239.977L239.977 257.77C242.43 260.23 245.652 261.457 248.873 261.457C252.094 261.457 255.316 260.23 257.77 257.77C262.683 252.856 262.683 244.891 257.77 239.977Z" fill="var(--color)"/>
<path d="M289.417 138.417H264.25C257.304 138.417 251.667 144.054 251.667 151C251.667 157.946 257.304 163.583 264.25 163.583H289.417C296.363 163.583 302 157.946 302 151C302 144.054 296.363 138.417 289.417 138.417Z" fill="var(--color)"/>
<path d="M257.77 44.2304C252.862 39.3166 244.884 39.3166 239.977 44.2304L222.184 62.0232C217.27 66.937 217.27 74.9023 222.184 79.8161C224.638 82.2761 227.859 83.503 231.08 83.503C234.302 83.503 237.523 82.2761 239.977 79.8161L257.77 62.0232C262.683 57.1094 262.683 49.1442 257.77 44.2304Z" fill="var(--color)"/>
<path d="M151 0C144.054 0 138.417 5.63733 138.417 12.5833V37.75C138.417 44.696 144.054 50.3333 151 50.3333C157.946 50.3333 163.583 44.696 163.583 37.75V12.5833C163.583 5.63733 157.946 0 151 0Z" fill="var(--color)"/>
<path d="M151 69.2083C105.901 69.2083 69.2085 105.901 69.2085 151C69.2085 196.099 105.901 232.792 151 232.792C196.099 232.792 232.792 196.099 232.792 151C232.792 105.901 196.099 69.2083 151 69.2083ZM151 207.625C119.781 207.625 94.3752 182.219 94.3752 151C94.3752 119.781 119.781 94.375 151 94.375C182.219 94.375 207.625 119.781 207.625 151C207.625 182.219 182.219 207.625 151 207.625Z" fill="var(--color)"/>
</svg>
