<svg width="123" height="129" viewBox="0 0 123 129" fill="none" xmlns="http://www.w3.org/2000/svg">
<circle cx="83.5" cy="39.5" r="39.5" fill="#C9CFE4"/>
<path d="M46 65C41.5893 65 38 61.4107 38 57C38 52.5893 41.5893 49 46 49C50.4107 49 54 52.5893 54 57C54 61.4107 50.4107 65 46 65ZM46 51.6667C43.0587 51.6667 40.6667 54.0587 40.6667 57C40.6667 59.9413 43.0587 62.3333 46 62.3333C48.9413 62.3333 51.3333 59.9413 51.3333 57C51.3333 54.0587 48.9413 51.6667 46 51.6667Z" fill="black"/>
<path d="M47 87C42.5893 87 39 83.4107 39 79C39 74.5893 42.5893 71 47 71C51.4107 71 55 74.5893 55 79C55 83.4107 51.4107 87 47 87ZM47 73.6667C44.0587 73.6667 41.6667 76.0587 41.6667 79C41.6667 81.9413 44.0587 84.3333 47 84.3333C49.9413 84.3333 52.3333 81.9413 52.3333 79C52.3333 76.0587 49.9413 73.6667 47 73.6667Z" fill="black"/>
<path d="M98.9999 87H64.3333C62.1279 87 60.3333 85.2053 60.3333 83V51C60.3333 48.7947 62.1279 47 64.3333 47H98.9999C101.205 47 103 48.7947 103 51V83C103 85.2053 101.205 87 98.9999 87ZM64.3333 49.6667C63.5999 49.6667 62.9999 50.2667 62.9999 51V83C62.9999 83.7333 63.5999 84.3333 64.3333 84.3333H98.9999C99.7332 84.3333 100.333 83.7333 100.333 83V51C100.333 50.2667 99.7332 49.6667 98.9999 49.6667H64.3333Z" fill="black"/>
<path d="M100.813 86.2799C100.485 86.2799 100.16 86.1599 99.9014 85.9199L61.6107 50.0266C61.0721 49.5199 61.0454 48.6773 61.5467 48.1413C62.0507 47.5999 62.8961 47.5786 63.4321 48.0799L101.723 83.9759C102.259 84.4799 102.288 85.3253 101.784 85.8613C101.523 86.1413 101.165 86.2799 100.813 86.2799Z" fill="black"/>
<path d="M62.5201 86.28C62.1654 86.28 61.8081 86.1387 61.5468 85.8587C61.0454 85.3227 61.0721 84.4774 61.6081 83.9734L99.9014 48.0774C100.435 47.576 101.28 47.5974 101.787 48.1387C102.288 48.6747 102.261 49.52 101.725 50.024L63.4321 85.9227C63.1734 86.1627 62.8481 86.28 62.5201 86.28Z" fill="black"/>
<path d="M93.6667 36.3333C89.9893 36.3333 87 33.344 87 29.6667C87 25.9893 89.9893 23 93.6667 23C97.344 23 100.333 25.9893 100.333 29.6667C100.333 33.344 97.344 36.3333 93.6667 36.3333ZM93.6667 25.6667C91.4613 25.6667 89.6667 27.4613 89.6667 29.6667C89.6667 31.872 91.4613 33.6667 93.6667 33.6667C95.872 33.6667 97.6667 31.872 97.6667 29.6667C97.6667 27.4613 95.872 25.6667 93.6667 25.6667Z" fill="black"/>
<path d="M101.667 39C101.325 39 100.984 38.8693 100.723 38.6107L96.7228 34.6107C96.2028 34.0907 96.2028 33.2453 96.7228 32.7253C97.2428 32.2053 98.0881 32.2053 98.6081 32.7253L102.608 36.7253C103.128 37.2453 103.128 38.0907 102.608 38.6107C102.349 38.8693 102.008 39 101.667 39Z" fill="black"/>
<path d="M77.6667 39H43C40.7947 39 39 37.2053 39 35V27C39 24.7947 40.7947 23 43 23H77.6667C79.872 23 81.6667 24.7947 81.6667 27V35C81.6667 37.2053 79.872 39 77.6667 39ZM43 25.6667C42.2667 25.6667 41.6667 26.2667 41.6667 27V35C41.6667 35.7333 42.2667 36.3333 43 36.3333H77.6667C78.4 36.3333 79 35.7333 79 35V27C79 26.2667 78.4 25.6667 77.6667 25.6667H43Z" fill="black"/>
<mask id="path-10-inside-1" fill="white">
<path fill-rule="evenodd" clip-rule="evenodd" d="M34 54H9.79167C4.38389 54 0 58.3839 0 63.7917V102.958C0 108.366 4.38389 112.75 9.79167 112.75H30.123L24.248 124.5H21.5417C20.4601 124.5 19.5833 125.377 19.5833 126.458C19.5833 127.54 20.4601 128.417 21.5417 128.417H25.4158C25.4432 128.417 25.4706 128.417 25.4979 128.417H56.7525C56.7646 128.417 56.7766 128.417 56.7888 128.417C56.8038 128.417 56.8188 128.417 56.834 128.417H60.7083C61.7897 128.417 62.6667 127.54 62.6667 126.458C62.6667 125.377 61.7897 124.5 60.7083 124.5H58.0019L52.1269 112.75H72.4583C77.8661 112.75 82.25 108.366 82.25 102.958V94H78.3333V97.0833H3.91667V63.7917C3.91667 60.547 6.54698 57.9167 9.79167 57.9167H34V54ZM3.91667 102.958V101H78.3333V102.958C78.3333 106.203 75.7029 108.833 72.4583 108.833H48.9979L48.9525 108.833L48.9156 108.833H33.334C33.3069 108.833 33.2795 108.833 33.2522 108.833H9.79167C6.54698 108.833 3.91667 106.203 3.91667 102.958ZM28.627 124.5L34.5019 112.75H47.7481L53.6231 124.5H28.627Z"/>
</mask>
<path fill-rule="evenodd" clip-rule="evenodd" d="M34 54H9.79167C4.38389 54 0 58.3839 0 63.7917V102.958C0 108.366 4.38389 112.75 9.79167 112.75H30.123L24.248 124.5H21.5417C20.4601 124.5 19.5833 125.377 19.5833 126.458C19.5833 127.54 20.4601 128.417 21.5417 128.417H25.4158C25.4432 128.417 25.4706 128.417 25.4979 128.417H56.7525C56.7646 128.417 56.7766 128.417 56.7888 128.417C56.8038 128.417 56.8188 128.417 56.834 128.417H60.7083C61.7897 128.417 62.6667 127.54 62.6667 126.458C62.6667 125.377 61.7897 124.5 60.7083 124.5H58.0019L52.1269 112.75H72.4583C77.8661 112.75 82.25 108.366 82.25 102.958V94H78.3333V97.0833H3.91667V63.7917C3.91667 60.547 6.54698 57.9167 9.79167 57.9167H34V54ZM3.91667 102.958V101H78.3333V102.958C78.3333 106.203 75.7029 108.833 72.4583 108.833H48.9979L48.9525 108.833L48.9156 108.833H33.334C33.3069 108.833 33.2795 108.833 33.2522 108.833H9.79167C6.54698 108.833 3.91667 106.203 3.91667 102.958ZM28.627 124.5L34.5019 112.75H47.7481L53.6231 124.5H28.627Z" fill="black"/>
<path d="M34 54H34.5V53.5H34V54ZM30.123 112.75L30.5702 112.974L30.932 112.25H30.123V112.75ZM24.248 124.5V125H24.557L24.6952 124.724L24.248 124.5ZM25.4158 128.417L25.4229 127.917H25.4158V128.417ZM25.4979 128.417V127.917L25.4907 127.917L25.4979 128.417ZM56.7525 128.417L56.7598 127.917H56.7525V128.417ZM56.7888 128.417L56.7895 127.917H56.7894L56.7888 128.417ZM56.834 128.417V127.917L56.8269 127.917L56.834 128.417ZM58.0019 124.5L57.5547 124.724L57.6929 125H58.0019V124.5ZM52.1269 112.75V112.25H51.3179L51.6797 112.974L52.1269 112.75ZM82.25 94H82.75V93.5H82.25V94ZM78.3333 94V93.5H77.8333V94H78.3333ZM78.3333 97.0833V97.5833H78.8333V97.0833H78.3333ZM3.91667 97.0833H3.41667V97.5833H3.91667V97.0833ZM34 57.9167V58.4167H34.5V57.9167H34ZM3.91667 101V100.5H3.41667V101H3.91667ZM78.3333 101H78.8333V100.5H78.3333V101ZM48.9979 108.833L48.9936 109.333H48.9979V108.833ZM48.9525 108.833L48.9567 108.333L48.9472 108.333L48.9525 108.833ZM48.9156 108.833V109.333L48.9209 109.333L48.9156 108.833ZM33.334 108.833L33.3267 109.333H33.334V108.833ZM33.2522 108.833V109.333L33.2594 109.333L33.2522 108.833ZM34.5019 112.75V112.25H34.1929L34.0547 112.526L34.5019 112.75ZM28.627 124.5L28.1798 124.276L27.818 125H28.627V124.5ZM47.7481 112.75L48.1953 112.526L48.0571 112.25H47.7481V112.75ZM53.6231 124.5V125H54.4321L54.0703 124.276L53.6231 124.5ZM9.79167 54.5H34V53.5H9.79167V54.5ZM0.5 63.7917C0.5 58.66 4.66003 54.5 9.79167 54.5V53.5C4.10774 53.5 -0.5 58.1077 -0.5 63.7917H0.5ZM0.5 102.958V63.7917H-0.5V102.958H0.5ZM9.79167 112.25C4.66003 112.25 0.5 108.09 0.5 102.958H-0.5C-0.5 108.642 4.10774 113.25 9.79167 113.25V112.25ZM30.123 112.25H9.79167V113.25H30.123V112.25ZM24.6952 124.724L30.5702 112.974L29.6758 112.526L23.8008 124.276L24.6952 124.724ZM21.5417 125H24.248V124H21.5417V125ZM20.0833 126.458C20.0833 125.653 20.7363 125 21.5417 125V124C20.184 124 19.0833 125.101 19.0833 126.458H20.0833ZM21.5417 127.917C20.7363 127.917 20.0833 127.264 20.0833 126.458H19.0833C19.0833 127.816 20.184 128.917 21.5417 128.917V127.917ZM25.4158 127.917H21.5417V128.917H25.4158V127.917ZM25.4907 127.917C25.4682 127.917 25.4456 127.917 25.4229 127.917L25.4087 128.917C25.4408 128.917 25.4729 128.917 25.505 128.917L25.4907 127.917ZM56.7525 127.917H25.4979V128.917H56.7525V127.917ZM56.7894 127.917C56.7796 127.917 56.7697 127.917 56.7598 127.917L56.7452 128.917C56.7594 128.917 56.7737 128.917 56.7881 128.917L56.7894 127.917ZM56.8269 127.917C56.8142 127.917 56.8018 127.917 56.7895 127.917L56.788 128.917C56.8057 128.917 56.8234 128.917 56.841 128.917L56.8269 127.917ZM60.7083 127.917H56.834V128.917H60.7083V127.917ZM62.1667 126.458C62.1667 127.264 61.5136 127.917 60.7083 127.917V128.917C62.0659 128.917 63.1667 127.816 63.1667 126.458H62.1667ZM60.7083 125C61.5136 125 62.1667 125.653 62.1667 126.458H63.1667C63.1667 125.101 62.0659 124 60.7083 124V125ZM58.0019 125H60.7083V124H58.0019V125ZM51.6797 112.974L57.5547 124.724L58.4491 124.276L52.5741 112.526L51.6797 112.974ZM72.4583 112.25H52.1269V113.25H72.4583V112.25ZM81.75 102.958C81.75 108.09 77.5899 112.25 72.4583 112.25V113.25C78.1422 113.25 82.75 108.642 82.75 102.958H81.75ZM81.75 94V102.958H82.75V94H81.75ZM82.25 93.5H78.3333V94.5H82.25V93.5ZM77.8333 94V97.0833H78.8333V94H77.8333ZM78.3333 96.5833H3.91667V97.5833H78.3333V96.5833ZM4.41667 97.0833V63.7917H3.41667V97.0833H4.41667ZM4.41667 63.7917C4.41667 60.8231 6.82313 58.4167 9.79167 58.4167V57.4167C6.27084 57.4167 3.41667 60.2708 3.41667 63.7917H4.41667ZM9.79167 58.4167H34V57.4167H9.79167V58.4167ZM34.5 57.9167V54H33.5V57.9167H34.5ZM3.41667 101V102.958H4.41667V101H3.41667ZM78.3333 100.5H3.91667V101.5H78.3333V100.5ZM78.8333 102.958V101H77.8333V102.958H78.8333ZM72.4583 109.333C75.979 109.333 78.8333 106.479 78.8333 102.958H77.8333C77.8333 105.927 75.4268 108.333 72.4583 108.333V109.333ZM48.9979 109.333H72.4583V108.333H48.9979V109.333ZM48.9482 109.333L48.9936 109.333L49.0022 108.333L48.9567 108.333L48.9482 109.333ZM48.9209 109.333L48.9577 109.333L48.9472 108.333L48.9104 108.333L48.9209 109.333ZM33.334 109.333H48.9156V108.333H33.334V109.333ZM33.2594 109.333C33.2819 109.333 33.3045 109.333 33.3267 109.333L33.3412 108.333C33.3093 108.333 33.2771 108.333 33.245 108.333L33.2594 109.333ZM9.79167 109.333H33.2522V108.333H9.79167V109.333ZM3.41667 102.958C3.41667 106.479 6.27083 109.333 9.79167 109.333V108.333C6.82313 108.333 4.41667 105.927 4.41667 102.958H3.41667ZM34.0547 112.526L28.1798 124.276L29.0742 124.724L34.9491 112.974L34.0547 112.526ZM47.7481 112.25H34.5019V113.25H47.7481V112.25ZM54.0703 124.276L48.1953 112.526L47.3009 112.974L53.1759 124.724L54.0703 124.276ZM28.627 125H53.6231V124H28.627V125Z" fill="#F0F2F8" mask="url(#path-10-inside-1)"/>
</svg>
