<svg id="Layer_1" data-name="Layer 1" xmlns="http://www.w3.org/2000/svg" viewBox="0 0 492.8 390.4"><defs><style>.cls-1,.cls-2{fill:#fff;}.cls-1,.cls-2,.cls-3,.cls-4,.cls-5,.cls-6,.cls-7{stroke:#606060;stroke-width:5px;}.cls-1,.cls-3,.cls-4,.cls-5,.cls-6,.cls-7{stroke-miterlimit:10;}.cls-2{stroke-linecap:round;stroke-linejoin:round;}.cls-3{fill:#f9f9f9;}.cls-4{fill:#d8d8d8;}.cls-5{fill:#e3e4e5;}.cls-6{fill:#f4f4f4;}.cls-7{fill:none;}</style></defs><rect class="cls-1" x="130.96" y="369.12" width="176.38" height="16.57" rx="8.29"/><path class="cls-2" d="M139.77,369.5H298.53s-35.23-4-35.23-40.31.77-30.36.77-30.36l-91.38-.37s2.32,18.42,0,35.52S166.88,362,139.77,369.5Z"/><rect class="cls-1" x="2.5" y="2.5" width="433.31" height="295.44" rx="22.55"/><rect class="cls-1" x="22.41" y="21.44" width="393.49" height="218.23" rx="13" transform="translate(438.31 261.1) rotate(-180)"/><rect class="cls-3" x="71.41" y="71.15" width="296.16" height="36.18" rx="4.6" transform="translate(438.97 178.47) rotate(-180)"/><rect class="cls-4" x="46.97" y="171.65" width="78.7" height="45.45" rx="4.6" transform="translate(172.65 388.75) rotate(-180)"/><circle class="cls-4" cx="219.15" cy="269.16" r="10.99"/><path class="cls-5" d="M23.74,21.09H416.23a0,0,0,0,1,0,0V41.61a13,13,0,0,1-13,13H35.74a13,13,0,0,1-13-13V22.09a1,1,0,0,1,1-1Z" transform="translate(438.97 75.7) rotate(-180)"/><rect class="cls-6" x="140.5" y="171.32" width="78.7" height="45.45" rx="4.6" transform="translate(359.7 388.09) rotate(-180)"/><rect class="cls-6" x="233.5" y="171.32" width="78.7" height="45.45" rx="4.6" transform="translate(545.7 388.09) rotate(-180)"/><line class="cls-7" x1="59.92" y1="130.55" x2="391.25" y2="130.55"/><line class="cls-7" x1="87.86" y1="149.25" x2="363.31" y2="149.25"/><rect class="cls-1" x="21.55" y="221.83" width="92.22" height="160.42" rx="13" transform="translate(135.33 604.08) rotate(-180)"/><rect class="cls-1" x="33.22" y="232.88" width="68.88" height="117.49" rx="3.43" transform="translate(135.33 583.24) rotate(-180)"/><circle class="cls-4" cx="67.66" cy="365.18" r="7.57"/><rect class="cls-1" x="323.8" y="150.41" width="166.5" height="237.48" rx="13" transform="translate(814.1 538.31) rotate(-180)"/><rect class="cls-1" x="339.13" y="167.4" width="135.84" height="192.73" rx="3.43" transform="translate(814.1 527.53) rotate(-180)"/><circle class="cls-4" cx="407.05" cy="374.42" r="7.04"/><rect class="cls-3" x="353.04" y="185.93" width="108.03" height="26.89" rx="4.6" transform="translate(814.1 398.74) rotate(-180)"/><line class="cls-7" x1="356.36" y1="232.37" x2="457.74" y2="232.37"/><line class="cls-7" x1="365.18" y1="245.24" x2="448.92" y2="245.24"/><rect class="cls-4" x="357.42" y="264.67" width="99.27" height="45.45" rx="4.6" transform="translate(814.1 574.79) rotate(-180)"/><rect class="cls-6" x="357.42" y="328.67" width="99.27" height="31.46" rx="4.6" transform="translate(814.1 688.8) rotate(-180)"/><path class="cls-4" d="M263.36,332.83c-.95-7.66,1.28-33.95,1.28-33.95L172,298.49s3.11,26.27,1,34.34"/></svg>