<svg id="Layer_1" data-name="Layer 1" xmlns="http://www.w3.org/2000/svg" viewBox="0 0 492.8 390.4"><defs><style>.cls-1{fill:#e0e2e2;}.cls-1,.cls-10,.cls-2,.cls-3,.cls-4,.cls-5,.cls-6,.cls-7,.cls-8,.cls-9{stroke:#606060;stroke-width:5px;}.cls-1,.cls-10,.cls-2,.cls-3,.cls-4,.cls-5,.cls-6,.cls-7,.cls-9{stroke-miterlimit:10;}.cls-2{fill:#adadad;}.cls-3{fill:#fff;}.cls-4{fill:#e3e4e5;}.cls-5{fill:#bfbfbf;}.cls-6{fill:#aaa;}.cls-7{fill:#a3a3a3;}.cls-10,.cls-8{fill:none;stroke-linecap:round;}.cls-8{stroke-linejoin:round;}.cls-9{fill:#f9f9f9;}</style></defs><rect class="cls-1" x="89.5" y="75.83" width="393.49" height="267.46" rx="13" transform="translate(572.48 419.12) rotate(-180)"/><path class="cls-2" d="M92,75.49H484.5a0,0,0,0,1,0,0V96a13,13,0,0,1-13,13H104A13,13,0,0,1,91,96V76.48a1,1,0,0,1,1-1Z" transform="translate(575.51 184.49) rotate(-180)"/><rect class="cls-3" x="8.3" y="31.77" width="393.49" height="267.46" rx="13" transform="translate(410.09 331) rotate(-180)"/><path class="cls-4" d="M10.81,31.43H403.3a0,0,0,0,1,0,0V52a13,13,0,0,1-13,13H22.81a13,13,0,0,1-13-13V32.43a1,1,0,0,1,1-1Z" transform="translate(413.12 96.38) rotate(-180)"/><circle class="cls-5" cx="38.98" cy="48.19" r="7.57"/><circle class="cls-6" cx="67.83" cy="48.18" r="7.57"/><circle class="cls-7" cx="97.83" cy="48.18" r="7.57"/><polyline class="cls-8" points="61.23 91.12 37.36 114.77 61.23 138.46"/><line class="cls-8" x1="74.4" y1="139.62" x2="93.15" y2="89.96"/><polyline class="cls-8" points="125.43 91.78 149.3 115.43 125.43 137.8"/><rect class="cls-9" x="39.38" y="168.01" width="330.97" height="36.18" rx="4.6" transform="translate(409.73 372.19) rotate(-180)"/><line class="cls-10" x1="39.38" y1="222.89" x2="370.71" y2="222.89"/><line class="cls-10" x1="39.38" y1="261.59" x2="314.83" y2="261.59"/><line class="cls-10" x1="39.38" y1="241.75" x2="370.71" y2="241.75"/></svg>