<svg id="Layer_1" data-name="Layer 1" xmlns="http://www.w3.org/2000/svg" viewBox="0 0 492.8 390.4"><defs><style>.cls-1{fill:#e3e4e5;}.cls-1,.cls-2,.cls-3,.cls-4,.cls-7{stroke:#606060;stroke-width:5px;}.cls-1,.cls-2,.cls-3,.cls-4,.cls-6{stroke-miterlimit:10;}.cls-2,.cls-7{fill:#fff;}.cls-3{fill:#f4f4f4;}.cls-4{fill:none;}.cls-5,.cls-6{fill:#606060;}.cls-6{stroke:#606161;}.cls-7{stroke-linecap:round;stroke-linejoin:round;}</style></defs><polygon class="cls-1" points="397.98 388.01 151.1 327.42 230.74 2.88 410.77 47.05 462.75 124.08 397.98 388.01"/><rect class="cls-2" x="43.05" y="28.11" width="254.2" height="334.18" transform="translate(-44.6 50.51) rotate(-14.95)"/><path class="cls-3" d="M98.67,388C131.16,345.11,190,317.4,248,317.4c56.87,0,110.05,30,142.63,71.55C347.2,389.22,162.76,388,98.67,388Z"/><circle class="cls-2" cx="244.29" cy="162.14" r="82.19"/><rect class="cls-2" x="308.31" y="147.23" width="35.39" height="35.39" transform="translate(653.98 325.87) rotate(179.3)"/><rect class="cls-2" x="143.79" y="149.23" width="35.39" height="35.39" transform="translate(324.99 331.87) rotate(179.3)"/><line class="cls-4" x1="356.66" y1="79.51" x2="136.14" y2="82.19"/><rect class="cls-5" x="233.2" y="66.76" width="31.76" height="31.76" transform="translate(499.15 162.24) rotate(179.3)"/><rect class="cls-5" x="329.95" y="65.58" width="31.76" height="31.76" transform="translate(692.62 158.7) rotate(179.3)"/><rect class="cls-5" x="132.06" y="67.99" width="31.76" height="31.76" transform="translate(296.88 165.93) rotate(179.3)"/><rect class="cls-2" x="219.22" y="186.01" width="57.01" height="16.5" transform="translate(497.8 385.49) rotate(179.3)"/><polygon class="cls-2" points="265.87 183.61 275.71 151.38 248.33 109.18 218.7 152.08 231.69 184.43 265.87 183.61"/><rect class="cls-2" x="221.92" y="198" width="50.25" height="153.01" transform="translate(497.4 545.98) rotate(179.3)"/><line class="cls-2" x1="247.67" y1="109.18" x2="248.18" y2="150.82"/><circle class="cls-6" cx="248.21" cy="153.71" r="9.25"/><polygon class="cls-7" points="410.99 45.42 462.66 124.42 401.66 115.31 410.99 45.42"/><rect class="cls-7" x="101.92" y="228.3" width="57.98" height="138.69" transform="translate(-122.58 93.99) rotate(-27.48)"/><polygon class="cls-7" points="81.3 202.25 73.19 249.5 124.64 222.75 81.3 202.25"/><polygon class="cls-6" points="80.66 202.15 76.59 225.88 102.41 212.44 80.66 202.15"/><path class="cls-7" d="M385.88,182.59,298.94,349.74l51.44,26.76,86.94-167.16Zm12,48.15a10.63,10.63,0,1,1,10.63-10.63A10.63,10.63,0,0,1,397.87,230.74Z"/><line class="cls-7" x1="308.6" y1="331.17" x2="326.47" y2="340.37"/><line class="cls-7" x1="321.72" y1="310.19" x2="339.59" y2="319.39"/><line class="cls-7" x1="335.16" y1="283.79" x2="353.04" y2="292.99"/><line class="cls-7" x1="346.81" y1="259.46" x2="364.68" y2="268.65"/><line class="cls-7" x1="360.97" y1="238.14" x2="378.84" y2="247.34"/></svg>