<svg xmlns="http://www.w3.org/2000/svg" xmlns:xlink="http://www.w3.org/1999/xlink" width="65.934" height="43.283" viewBox="0 0 65.934 43.283">
  <defs>
    <clipPath id="clip-path">
      <path id="Path_274" data-name="Path 274" d="M68.219-720.87l-.046.046.046.091a.439.439,0,0,1,.32.137l-.228.274q-.321.137-2.377,1.508a2.1,2.1,0,0,1-.479.274.982.982,0,0,0-.479.366,1.434,1.434,0,0,1-.5.366,2.034,2.034,0,0,0-.5.32,4.177,4.177,0,0,1-1.006.548l-2.01.914-.228.091a3.025,3.025,0,0,0-.982.091,4.742,4.742,0,0,1-.845.137,4.847,4.847,0,0,0-.64.137h-.183a5.274,5.274,0,0,0-1.462-.137,2.21,2.21,0,0,1-.228-.137l-.137-.046a.6.6,0,0,1-.275-.114.6.6,0,0,0-.274-.114,3.174,3.174,0,0,1-2.33-2.147q-.458-1.052-.458-1.1a2.081,2.081,0,0,1-.457-.96,5.329,5.329,0,0,1-.411-2.6q.092-.5.3-1.462t.251-1.188a5.37,5.37,0,0,1,.823-2.285,1.908,1.908,0,0,0,.183-.548q.09-.411.137-.548l.731-1.919v-.182l.412-.5q.045-.137,0-.137c.091-.091.137-.152.137-.183l.228-.365q.182,0,0-.137l.229-.365.046-.091a.354.354,0,0,0,.137-.32l.183-.411c.091,0,.152-.061.183-.183h.046v-.046l.548-.914v-.046l.046-.137a1.6,1.6,0,0,1,.228-.366q.09,0,.137-.183c.091,0,.259-.212.5-.64a.68.68,0,0,1,.595-.457q.456,0,.183-.457a.121.121,0,0,1,.137-.137,6.521,6.521,0,0,0,.48-.708,3.765,3.765,0,0,1,.663-.845,5.673,5.673,0,0,1,1.371-1.919,6.883,6.883,0,0,0,.5-.594q.319-.411.457-.594l.913-1.051q.091-.137,1.508-1.554l.366-.366a3.293,3.293,0,0,0,.366-.411.56.56,0,0,1,.365-.411,1.2,1.2,0,0,0,.388-.366,4.039,4.039,0,0,1,.3-.365,1.847,1.847,0,0,0,.686-.685,3.653,3.653,0,0,1,.594-.548,7.014,7.014,0,0,0,.64-.548l.731-.64a13.533,13.533,0,0,1,3.154-2.239l.411-.274c.061-.061.137-.144.228-.251s.16-.183.206-.229a.8.8,0,0,1,.206-.137.707.707,0,0,1,.32-.068.266.266,0,0,1,.183-.046A11.733,11.733,0,0,1,76.627-754a1,1,0,0,0,.32-.206,1.783,1.783,0,0,1,.365-.251.815.815,0,0,1,.366-.091,4.557,4.557,0,0,1,.48-.3,5.794,5.794,0,0,1,.663-.343q.091-.045.48-.2a2.57,2.57,0,0,0,.616-.343q.319-.137.891-.434a6.8,6.8,0,0,1,.845-.388l2.742-.914a2.693,2.693,0,0,1,.64-.228,2.046,2.046,0,0,0,.776-.366l.137-.046a.411.411,0,0,1,.183-.046,12.262,12.262,0,0,0,1.234-.091l.777-.275h.3a.7.7,0,0,0,.3-.046,4.04,4.04,0,0,0,.777-.046q.091-.091.32-.023a.482.482,0,0,0,.32.023l1.325.091c.121,0,.182.031.182.091a3.371,3.371,0,0,0,.96.411q.137.092.343.206t.343.206l.275.183A5.041,5.041,0,0,1,95.5-755v.228a1.1,1.1,0,0,0,.274.366.661.661,0,0,1,.229.457,2.049,2.049,0,0,0,.137.868v.229a1.2,1.2,0,0,0-.137.617,1.7,1.7,0,0,1-.091.617,1.017,1.017,0,0,1-.091.457,8.008,8.008,0,0,1-1.326,1.873L92.8-747.6a2.744,2.744,0,0,1-1.782.96,1.772,1.772,0,0,1-.731-.136l-.137-.229.549-.868a.865.865,0,0,0,.365-.411,20.646,20.646,0,0,0,1.965-2.559,4.23,4.23,0,0,0,.914-2.6v-1.325a4.3,4.3,0,0,0-1.188-2.468l-1.1-.548a1.367,1.367,0,0,1-.548.137,1.24,1.24,0,0,0-.593.183.761.761,0,0,1-.366.046,7.518,7.518,0,0,0-2.011.183,7.4,7.4,0,0,1-.823.206q-.548.114-.96.229a4.285,4.285,0,0,0-.777.3,1.7,1.7,0,0,1-.662.228,2.923,2.923,0,0,0-.663.183c-.091.031-.244.084-.457.16a2.717,2.717,0,0,0-.5.228,2.106,2.106,0,0,0-.366.3l-1.1.411-1.234.594-2.742,1.645a9.868,9.868,0,0,0-1.553,1.005l-.686.411a2.762,2.762,0,0,0-.914.594,1.152,1.152,0,0,1-.456.274,1.4,1.4,0,0,0-.548.183,4.7,4.7,0,0,1-.571.571,5.693,5.693,0,0,0-.617.617,2.5,2.5,0,0,1-.96.777,8.133,8.133,0,0,0-.844.708,10.505,10.505,0,0,1-.892.754.9.9,0,0,0-.32.228,1.293,1.293,0,0,1-.274.229,9.446,9.446,0,0,1-.663.8q-.435.48-.571.617a2.422,2.422,0,0,1-.731.594c-.03.062-.2.3-.5.731l-.457.594-.412.365a3.282,3.282,0,0,0-1.233,1.325,2.315,2.315,0,0,1-.274.32,1.281,1.281,0,0,0-.229.274,3.406,3.406,0,0,0-.914.822.719.719,0,0,1-.274.526,1.169,1.169,0,0,0-.319.388q-.184.229-.5.571t-.572.64a2.233,2.233,0,0,0-.388.663,4.9,4.9,0,0,1-.708,1.1q-.572.731-.617.777l-.457.365a.42.42,0,0,0-.228.251c-.062.137-.123.206-.183.206a.51.51,0,0,1-.183.183l-.091.046a1.432,1.432,0,0,1-.091.731,3.4,3.4,0,0,1-.434.708,4.173,4.173,0,0,0-.388.571l-.183.137a1.194,1.194,0,0,0-.183.32,1.027,1.027,0,0,0-.046.32,9.112,9.112,0,0,1-.913,1.142.962.962,0,0,0-.412.868.216.216,0,0,1-.183.228l-.366,1.1a1.233,1.233,0,0,1-.457.823,1.289,1.289,0,0,0-.549,1.325q0,.046-.228.96a1.944,1.944,0,0,1-.091.457,1.915,1.915,0,0,0-.091.457,1.691,1.691,0,0,1-.183.96.558.558,0,0,0-.137.411v2.285a1.877,1.877,0,0,0,.137.823,2.905,2.905,0,0,1,.183.822c0,.121.091.229.274.32a2.015,2.015,0,0,0,.685.32,9.685,9.685,0,0,0,1.508.366.408.408,0,0,0,.3.091.41.41,0,0,0,.3-.091,1.311,1.311,0,0,1,.685-.16,4.335,4.335,0,0,0,.685-.069l.891-.3q.754-.252,1.211-.434a3.68,3.68,0,0,0,1.508-.731,5.043,5.043,0,0,0,1.141-.48q.731-.389.914-.48l.548-.32a3.02,3.02,0,0,0,.823-.5l.319-.32a5.333,5.333,0,0,0,.983-.48q.48-.3,1.142-.8t.845-.64q.137-.092.5-.3c.244-.137.426-.236.548-.3a1.718,1.718,0,0,0,.548-.434,2.1,2.1,0,0,1,.5-.434l1.005-.64,1.1-.777c0-.03.023-.046.069-.046h.16a.411.411,0,0,0,.183-.046l-.412.64-2.33,1.6a1.458,1.458,0,0,0-.595.365,1.492,1.492,0,0,1-.594.366,7.113,7.113,0,0,1-1.051.823q-.685.456-.96.685a.183.183,0,0,0-.183.091.307.307,0,0,0-.023.206c.015.076-.008.114-.069.114h-.5l-.091.091a.733.733,0,0,1-.137.183l-.091.091a.514.514,0,0,1-.114.206.316.316,0,0,1-.229.069.31.31,0,0,0-.206.046.776.776,0,0,0-.319.046,3.417,3.417,0,0,1-.845.64,4.684,4.684,0,0,0-.891.64v.046a.765.765,0,0,0,.183.046c-.122.121-.183.106-.183-.046l-.457.183a8.534,8.534,0,0,0-.777.388,5.869,5.869,0,0,1-.823.388.04.04,0,0,0-.046.046.132.132,0,0,0,.046.091l.138.137.046.046H62.1a.271.271,0,0,1,.182-.183.412.412,0,0,1,.229-.023.261.261,0,0,0,.183-.023,12.814,12.814,0,0,0,2.468-1.187,3.2,3.2,0,0,0,.366-.16,2.907,2.907,0,0,1,.365-.16l1.646-.914a22.445,22.445,0,0,1,2.011-1.1c.03,0,.076-.031.137-.091a1.552,1.552,0,0,0,.183-.228,1.259,1.259,0,0,1,.137-.182,8.413,8.413,0,0,1,1.051-.777c.152-.091.4-.259.753-.5s.632-.427.846-.548c.03-.061.121-.091.274-.091-.061.213-.137.335-.228.366a1.838,1.838,0,0,0,.023.251.537.537,0,0,1-.023.274.279.279,0,0,1-.183.16q-.183.045-.5.457a.568.568,0,0,1-.343.114,1.079,1.079,0,0,0-.342.068l-.091.137h-.046l-.137-.274q-.41.182-.411.32a2.724,2.724,0,0,1-1.006,1.279l-1.1.685C68.539-720.779,68.432-720.87,68.219-720.87Zm2.924-1.644c-.123-.062-.107-.092.046-.092A.136.136,0,0,1,71.143-722.515Zm5.849-4.8c0,.062.091.137.274.228,0,.062-.015.091-.045.091a7.283,7.283,0,0,0-1.028.686,7.247,7.247,0,0,1-1.029.685,2.815,2.815,0,0,1-1.051.777,2.618,2.618,0,0,1-1.051.411,1.032,1.032,0,0,1,.594-.731l.64-.228a8.366,8.366,0,0,1,1.394-1.051Q76.625-727.039,76.992-727.313ZM79-729.781q-.183.32-.457,0a8.516,8.516,0,0,0-1.919,1.325c-.153.244-.319.32-.5.229l-.228.365-.274.183a4.857,4.857,0,0,0-.914.594,3.681,3.681,0,0,1-1,.594h-.228a1.121,1.121,0,0,1,.251-.388,2,2,0,0,1,.548-.343,2.631,2.631,0,0,0,.434-.229,5.341,5.341,0,0,1,.572-.388c.228-.137.388-.236.48-.3a.564.564,0,0,1,.32-.091v-.183a.264.264,0,0,1,.046-.183q.319-.228.891-.617t.754-.526a1.272,1.272,0,0,0,.32-.183.609.609,0,0,1,.457-.137v.274Zm.183,1.188a2.287,2.287,0,0,1-.914.868q-.914.5-1.006.548c0-.091-.091-.137-.274-.137a.4.4,0,0,0,.16-.16.952.952,0,0,1,.114-.16l.046-.091a2.847,2.847,0,0,0,1.28-.868.626.626,0,0,1,.251-.091.6.6,0,0,0,.3-.137h.046ZM79-730.055v0h-.457a3,3,0,0,1,1.234-1.05H80.1a1.2,1.2,0,0,1-.731.639Zm.183.137-.091.091-.092.046v-.229C79-729.947,79.063-729.918,79.186-729.918Zm.959.275a1.286,1.286,0,0,0,.3-.3.552.552,0,0,1,.388-.251h.046a1.178,1.178,0,0,1-.228.549h-.5Zm1.463-2.56c.183-.4.441-.548.777-.457q-.047.229-.548.594h-.228Q81.562-732.065,81.607-732.2Zm2.33-1.371-1.234.914h-.32a1.558,1.558,0,0,1,.776-.868,2.787,2.787,0,0,0,.5-.366l.274-.274c.091-.091.137-.075.137.046q.137.183,0,.183A.606.606,0,0,1,83.938-733.573Zm-1.234,2.1q.365-.594.777-.457a4.936,4.936,0,0,1-.548.594H82.7Q82.612-731.426,82.7-731.471Zm.777-.594a1.141,1.141,0,0,1,.914-.594A1,1,0,0,1,83.481-732.065Zm2.1-3.016q.137.137.046.137a.245.245,0,0,1-.183.274l-.411.32c-.183.091-.2.229-.046.412-.091.121-.154.2-.183.228-.092.091-.154.076-.183-.046h-.046v-.046a.3.3,0,0,0-.069-.182.28.28,0,0,1-.069-.138.363.363,0,0,1,.046-.229,1.15,1.15,0,0,1,.96-.731Zm3.152-1.645a1.091,1.091,0,0,1-.867.5.809.809,0,0,0-.412.228,1.5,1.5,0,0,1-.411.274l-.137.091c0-.03-.031-.061-.091-.091s-.091-.061-.091-.092c-.031-.029-.031-.091,0-.183a.268.268,0,0,0,.137-.228,24.291,24.291,0,0,0,2.924-1.782,1.408,1.408,0,0,1,.869-.274.557.557,0,0,1-.366.319,3.322,3.322,0,0,0-.868.594,1.077,1.077,0,0,1-.343.366A3.312,3.312,0,0,0,88.735-736.726Zm2.742-2.193a.533.533,0,0,1-.32.365l-.5.275a.914.914,0,0,1,.046-.412,1.477,1.477,0,0,0,.319-.137A.683.683,0,0,1,91.477-738.92Z" transform="translate(-52 758.666)" fill="none" clip-rule="evenodd"/>
    </clipPath>
    <clipPath id="clip-path-2">
      <path id="Path_276" data-name="Path 276" d="M114.4-730.339v.5h.274v.685a3.631,3.631,0,0,0,.686-1.188.747.747,0,0,0,.228-.046l.137-.046a1.331,1.331,0,0,1-.046-.32v-.274h-.091v-.046q-.274-.182,0-.411v.411h.091v.046h.137c.061.031.091.107.091.228q.046-.228.137-.228a.292.292,0,0,1,.183.274,1.086,1.086,0,0,0-.137.251.989.989,0,0,1-.182.3,6.127,6.127,0,0,0-.434.777,3.329,3.329,0,0,1-.526.822q.137.229-.114.5c-.167.183-.251.305-.251.366a1.641,1.641,0,0,1-.183.823c-.061.213-.167.51-.32.891s-.244.633-.275.754a.446.446,0,0,0,.092.228l.046-.137a3.28,3.28,0,0,1,.434-.342q.3-.207.526-.389a4.679,4.679,0,0,0,.411-.366l2.148-1.919c.031-.152.259-.349.685-.594q.365-.456.5-.594l4.021-3.289a4.746,4.746,0,0,1,1.417-.732.754.754,0,0,0,.274-.228,2.639,2.639,0,0,1,1.325-.777,2.811,2.811,0,0,0,1.1-.731,4.372,4.372,0,0,1,1.324-.731,14.428,14.428,0,0,1,1.326-.731,4.657,4.657,0,0,1,2.193-.548H132a1.163,1.163,0,0,0,1.1.548v.046a.316.316,0,0,0,.091.388.432.432,0,0,1,.183.3,2.909,2.909,0,0,1-.639,2.468,9.874,9.874,0,0,1-.732.891,4.367,4.367,0,0,0-.731,1.028.631.631,0,0,1-.411.229,1.134,1.134,0,0,1-.5-.092.456.456,0,0,0-.456.183,9.756,9.756,0,0,0-.869,1.462,20.035,20.035,0,0,1-1.371,2.056l-.091.228q.182.274.32.137l.914-.183a14.155,14.155,0,0,0,3.793-1.873,19.117,19.117,0,0,0,1.782-1.279q.411-.274,1.189-.845t1.187-.845a24.094,24.094,0,0,1,3.656-2.422q.366-.227,1.189-.64a1.619,1.619,0,0,1,1.279-.274.527.527,0,0,1,.366.092,3.007,3.007,0,0,1,1.006,1.188.3.3,0,0,1,0,.32.3.3,0,0,1-.274.183h-.32a1.554,1.554,0,0,0-.731-.137l-1.279.457q-2.1,1.463-2.468,1.736l-.274.274-.182.137a15.457,15.457,0,0,0-1.965,1.28q-1.918,1.508-2.285,1.828a6.628,6.628,0,0,0-1.211.708q-.753.526-.982.663-.092.045-1.188.639a7.108,7.108,0,0,1-4.387.868,1.54,1.54,0,0,1-1.028-.845,1.748,1.748,0,0,1-.114-1.485,1.9,1.9,0,0,0,.32-.548q.411-.593,1.394-1.965t1.439-2.1a4.049,4.049,0,0,0,.685-1.417,1.279,1.279,0,0,1,.32-.48,1.563,1.563,0,0,0,.32-.434q.137-.182-.137-.274v-.32h-.457c0-.152.121-.274.366-.366a2.643,2.643,0,0,1,.913-.5l.046-.137a.211.211,0,0,0-.228-.137,5.852,5.852,0,0,0-.822.388,5.719,5.719,0,0,1-.823.388,5.439,5.439,0,0,0-1.142.5q-.548.321-1.257.8t-1.028.663a8.763,8.763,0,0,0-2.056,1.325,20.5,20.5,0,0,0-2.01,1.554q-.184.137-1.554,1.279t-2.056,1.782a5.833,5.833,0,0,0-1.234,1.417.5.5,0,0,0,.229-.046,1.123,1.123,0,0,0,.183-.114.276.276,0,0,1,.137-.069q3.016-2.7,3.336-2.924a11.386,11.386,0,0,0,1.508-1.142,2.155,2.155,0,0,0,.5-.343,1.086,1.086,0,0,1,.64-.3l.046.046-.046-.046a1.346,1.346,0,0,0,.137-.183q.091-.137.137-.137a12.685,12.685,0,0,1,1.554-1.142.621.621,0,0,1,.457-.183.371.371,0,0,1,.274-.183q.32-.319.457-.32v.32l.137-.137a.041.041,0,0,0-.046-.046.506.506,0,0,1-.091-.137,1.092,1.092,0,0,1,1.189-.594.19.19,0,0,1,.046.137h.411a.728.728,0,0,1-.137.183c-.061.061-.091.107-.091.137a7.969,7.969,0,0,1-2.056,1.1v-.228a.3.3,0,0,1-.137.136c-.061.031-.092.061-.092.091-.274,0-.442.076-.5.229h.411a2.791,2.791,0,0,1-.32.411q-.5.367-1.828,1.439t-2.1,1.622a19.014,19.014,0,0,0-2.011,1.874q-.273.274-3.518,3.29a1.624,1.624,0,0,1-.48.365.966.966,0,0,0-.48.549l-1.1.822a1.112,1.112,0,0,1-.456.046q-.5-.046-1.1-.96a.888.888,0,0,1,0-1.188,14.805,14.805,0,0,0,.869-2.513l.046-.046.091-.046v.228a.214.214,0,0,1,.091.023.2.2,0,0,0,.091.023v-.183l-.183-.091a.641.641,0,0,0,.046-.274.636.636,0,0,1,.046-.274.328.328,0,0,1,.229-.137v.137l.045.183q.137,0,.137-.183l.046-.137h.137a1.576,1.576,0,0,1,.046.457.145.145,0,0,1,.137.091l.046-.091a.634.634,0,0,1,.137-.457h-.137v-.046h-.183v.046h-.046v-.046h.046q-.09-.411-.183-.457a1.538,1.538,0,0,1,.023-.229,1.332,1.332,0,0,0,.023-.183c.214-.091.32-.2.32-.32q-.319-.228,0-.411v.411a.389.389,0,0,0,.274-.411.51.51,0,0,0,.274-.5c-.183.031-.274.183-.274.457h-.138v.046h-.137v-.046h.137a.635.635,0,0,1,.412-.913v.456q.183-.091.183-.456h-.183C114.222-730.14,114.284-730.309,114.4-730.339Zm-.731,3.062h.137v.046c.092-.029.138-.2.138-.5A.423.423,0,0,0,113.674-727.278Zm.274-.457a.421.421,0,0,0,.274-.457.32.32,0,0,0-.274.366Zm1.142-4.021a.815.815,0,0,1-.411.96A2.629,2.629,0,0,1,115.09-731.756Zm.228,1.279v.137a1.622,1.622,0,0,0-.366.229.823.823,0,0,1,.137-.5l.046-.046c.031-.03.061-.06.091-.091a.223.223,0,0,0,.046.114A.281.281,0,0,1,115.319-730.476Zm.275-1.874a.674.674,0,0,1-.412.594Q115.182-732.3,115.593-732.35Zm.456.137a.182.182,0,0,0,.046-.137.412.412,0,0,1,.046-.183.3.3,0,0,1,.183-.136v.456h.228v-.091l.091-.046q.32-.091.183-.548c.091-.03.168-.137.229-.32s.137-.289.228-.32a1.077,1.077,0,0,1,.457-.137.411.411,0,0,1,.183.046,4.168,4.168,0,0,1-.457.685c0-.061-.015-.091-.046-.091l-.137.091h.183v.046a1.662,1.662,0,0,1-.777,1.142,7.464,7.464,0,0,0-.639.685h-.228v-.411q.5-.091.5-.731Zm.274-1.417a.638.638,0,0,1-.5.685A1.046,1.046,0,0,1,116.324-733.629Zm1.873-2.787a.917.917,0,0,1-.457.731A.765.765,0,0,1,118.2-736.417Zm.366,1.828c-.062,0-.062-.076,0-.228a1.138,1.138,0,0,1,.319-.137q0,.229-.137.274A.265.265,0,0,1,118.564-734.589Zm23.3-22.893a.8.8,0,0,1,.046.32l-.046.137v.229q-.915,2.011-1.577,3.176a10.727,10.727,0,0,1-.891,1.416,1.763,1.763,0,0,1-.434.366.607.607,0,0,0-.251.206,1.66,1.66,0,0,1-.366.343,2.04,2.04,0,0,0-.412.388,18.261,18.261,0,0,1-1.828,1.874,11.146,11.146,0,0,0-1.279,1.279l-1.188,1.325q-.183.229-2.376,2.285-.777.685-2.787,2.193-1.371,1.1-2.376,1.782a34.433,34.433,0,0,1-4.021,2.65l-.456.229a5.447,5.447,0,0,0-1.371.64,1.905,1.905,0,0,1-1.142.411.162.162,0,0,0-.183-.183c-.091-.274-.153-.411-.182-.411a.346.346,0,0,1-.183-.343.9.9,0,0,0-.046-.343v-.228a1.592,1.592,0,0,0,.5-.274,3.242,3.242,0,0,0,.457-.457q.228-.274.366-.411v.091a.368.368,0,0,1,.046.137.742.742,0,0,0,.183-.046.186.186,0,0,0,.137-.046c.031-.029.1-.114.206-.251a1.032,1.032,0,0,1,.343-.3q0-.593.732-.868v.5c.121.061.251,0,.388-.182s.281-.229.434-.138a1.342,1.342,0,0,0,.137-.183,1.052,1.052,0,0,0,.366-.731h-.183c0-.03.023-.061.069-.091s.069-.061.069-.091a.413.413,0,0,1,.046.183,1.262,1.262,0,0,1,.594-.069.613.613,0,0,0,.549-.16,8.534,8.534,0,0,1,.868-.823q.959-.731,1.371-1.005a1.726,1.726,0,0,0,.777-.594,8.708,8.708,0,0,0,1.141-.868q.686-.593.96-.823a32.585,32.585,0,0,0,2.6-2.193q.5-.456,1.394-1.257t1.165-1.073a29.7,29.7,0,0,0,5.483-7.22,1.334,1.334,0,0,0-.274-1.28.446.446,0,0,0-.229-.068c-.123-.016-.183-.008-.183.022l-.365.274a1,1,0,0,0-.457.5.986.986,0,0,1-.275.32,16.239,16.239,0,0,0-1.736,1.325,37.819,37.819,0,0,0-3.472,3.381,19.816,19.816,0,0,1-1.874,1.965.469.469,0,0,0-.091.183h-.32a.447.447,0,0,0-.319-.091v-.229a.2.2,0,0,0-.229.229h.229v.229a.26.26,0,0,1,0,.457v-.457l-.229-.229a.776.776,0,0,1-.228.114.768.768,0,0,0-.229.114,1.94,1.94,0,0,0-.046.457h.046l-.046.045a.883.883,0,0,1,.732-.045,4.291,4.291,0,0,1-.32.411,1.4,1.4,0,0,0-.275.868,1.8,1.8,0,0,1-.64,1.005,5,5,0,0,0-1.371.731l.046.046a.04.04,0,0,1-.046-.046.737.737,0,0,1-.411.685h-.091l-.091-.091-.091.091h.137a.794.794,0,0,1-.046.228.314.314,0,0,0-.091-.228h-.229v-.366a1.434,1.434,0,0,0-.229.046,1.491,1.491,0,0,0-.274.091v-.411a1.038,1.038,0,0,1-.411.183.211.211,0,0,1,.137-.228,3.1,3.1,0,0,1,.777-.96.488.488,0,0,0,.183.228v-.046a.416.416,0,0,0,.046-.183h-.229a1.493,1.493,0,0,1,.914-1.1v.5a1.381,1.381,0,0,0,.411-.32,1.727,1.727,0,0,1-.091.548,1.193,1.193,0,0,1-.137.206,2.09,2.09,0,0,1-.137.16q.274.367.593,0a1.132,1.132,0,0,0,.32-.457,1.226,1.226,0,0,0,.228-.32,2.345,2.345,0,0,0,.16-.434,2.421,2.421,0,0,1,.16-.434h.137v-.091a.355.355,0,0,0,.046-.137q-.092,0-.32.228-.091.092-.64.548v-.366a1.105,1.105,0,0,1-.366.137l-.32.228q0-.776.685-.777v.228c.122,0,.2-.076.229-.228h-.229v-.137a1.854,1.854,0,0,1,.914-.96,1.2,1.2,0,0,1,.046.366h.183v-.366h-.183a1.736,1.736,0,0,1,1.142-1.371c.152.061.243.061.274,0l.137-.274h-.137a.563.563,0,0,1,0-.319.737.737,0,0,1,.228-.3q.182-.16.388-.366c.137-.137.35-.334.64-.594a11,11,0,0,0,.846-.845,22.674,22.674,0,0,0,2.056-1.828,5.646,5.646,0,0,1,.869-.64,5.475,5.475,0,0,0,.548-.457,4.144,4.144,0,0,1,.731-.64,2.976,2.976,0,0,1,2.513-.685,3.992,3.992,0,0,1,.434.023,1.312,1.312,0,0,1,.434.137c.152.076.267.13.343.16a1.3,1.3,0,0,1,.343.275q.228.228.275.274c.029.031.129.137.3.32S141.836-757.512,141.868-757.482Zm-22.939,21.8v-.457h.183v.457Zm4.524-6.58a.761.761,0,0,1-.046.183.268.268,0,0,0-.046-.183q-.548.321-.548.64v.091a.461.461,0,0,0-.366.64q-.182,0-.5.32c-.061.061-.137.13-.229.206s-.168.145-.228.206v-.457a1.091,1.091,0,0,0-.5.228.794.794,0,0,1,.5-.685v.457a.732.732,0,0,0,.456-.685h-.137l-.091-.046v.046h-.091l.091-.046a.614.614,0,0,1,.366-.685.592.592,0,0,0,.183.5c-.213,0-.32.062-.32.183q.319.092.32-.183a.743.743,0,0,0,.366-.731h-.183q0-.593.366-.685v.5q.137-.091.32-.205a.716.716,0,0,1,.228-.115v.5Zm-.548-.96q.137-.364.457.046a.7.7,0,0,0-.274.091.688.688,0,0,1-.274.091C122.873-743.026,122.9-743.1,122.9-743.225Zm.32,12.064a.132.132,0,0,0-.091-.045A.132.132,0,0,0,123.224-731.162Zm1.006-12.749a1.239,1.239,0,0,1-.206.617,2.792,2.792,0,0,1-.663.525v-.411l.274-.183a1.235,1.235,0,0,1,.32-.3A.916.916,0,0,0,124.23-743.911Zm-.458,1.645a.5.5,0,0,0,.32-.183q.043,0,.274-.228a1.9,1.9,0,0,1,.159-.138.335.335,0,0,1,.183-.091.756.756,0,0,1,.206.046q.182.229-.229.5l-.251.251a1,1,0,0,1-.343.251.609.609,0,0,1-.5.228Zm.96-2.285q0,.594-.5.64A.573.573,0,0,1,124.732-744.55Zm.914-1.736h-.183c0-.091.061-.137.183-.137l.046.137v.091a.744.744,0,0,0,.411-.091.4.4,0,0,1-.046.183.354.354,0,0,0-.046.137,1.692,1.692,0,0,0-.046.412h.228c.244,0,.366.091.366.274,0,.091-.107.137-.32.137a.526.526,0,0,1-.137.091c-.091.061-.137.123-.137.183a.916.916,0,0,0,.411.046.183.183,0,0,0,.091.183h-.091c-.244,0-.381.031-.411.091q0,.32-.137.412-.137.045-.343.091a3.517,3.517,0,0,0-.343.091q-.229,0-.091-.32a.3.3,0,0,1,.182-.274,1.14,1.14,0,0,0-.5-.091q0-.274.32-.366a1.715,1.715,0,0,0,.411-.777q.091-.044.229-.411h-.046Zm-.274.5a1.118,1.118,0,0,1-.64.366,2.806,2.806,0,0,1,.64-.777Zm-.228,2.239q.136.32-.228.32a.08.08,0,0,1-.091-.091.882.882,0,0,0,.114-.16c.046-.076.084-.114.114-.114C125.113-743.591,125.143-743.575,125.143-743.545Zm2.194-3.381a.888.888,0,0,1,.114-.32.7.7,0,0,0,.069-.457,1.156,1.156,0,0,0-.411.777Zm0,12.931h-.046v-.091h.046Zm.5.137v-.137h-.091v-.091h-.411a1.765,1.765,0,0,1,1.1-.64.526.526,0,0,1-.183.366l-.228.046a.313.313,0,0,0-.274.229h.091v.091h.411c-.031.061-.107.091-.228.091S127.839-733.888,127.839-733.858Zm1.554-1.417v.32h.5a4.1,4.1,0,0,1-.732.594,1.253,1.253,0,0,1-.183-.023,1.437,1.437,0,0,0-.183-.023.3.3,0,0,1,.183-.137l.091-.046c.061-.061.091-.106.091-.137h-.685A1,1,0,0,1,129.393-735.274Zm1.234-15.947q.593-.412.64-.732l.137-.183c.061-.06.091-.106.091-.137l.046-.046a.2.2,0,0,0,.229-.228h-.091l.046-.046a1.1,1.1,0,0,0-.64.64A.764.764,0,0,0,130.627-751.221Zm2.148-2.331c.091-.06.137-.2.137-.411-.062.031-.274.183-.64.457q0,.183-.274.274v.411a.264.264,0,0,0-.046.183.569.569,0,0,0,.137-.229h-.046a.135.135,0,0,1,.091-.046l.549-.5Zm5.163.274q.365-.137.183-.5A.6.6,0,0,0,137.938-753.278Z" transform="translate(-111.527 759)" fill="none" clip-rule="evenodd"/>
    </clipPath>
  </defs>
  <g id="Charis-logo" transform="translate(-331 526.073)">
    <g id="Group_3159" data-name="Group 3159" transform="translate(331 -525.887)" clip-path="url(#clip-path)">
      <path id="Path_273" data-name="Path 273" d="M47-763.666H96.711V-715H47Z" transform="translate(-49.786 760.88)" fill="#050e29"/>
    </g>
    <g id="Group_3160" data-name="Group 3160" transform="translate(364.172 -526.073)" clip-path="url(#clip-path-2)">
      <path id="Path_275" data-name="Path 275" d="M106.527-764h38.335v42.778H106.527Z" transform="translate(-109.313 761.214)" fill="#050e29"/>
    </g>
  </g>
</svg>
